<svg width="128" height="128" viewBox="0 0 128 128" fill="none" xmlns="http://www.w3.org/2000/svg">
  <!-- Background circle -->
  <circle cx="64" cy="64" r="60" fill="#4f46e5" stroke="#3730a3" stroke-width="4"/>
  
  <!-- Brain/AI symbol -->
  <path d="M40 50 C40 40, 50 30, 64 30 C78 30, 88 40, 88 50 C88 60, 78 70, 64 70 C50 70, 40 60, 40 50 Z" fill="white"/>
  
  <!-- Neural network nodes -->
  <circle cx="50" cy="45" r="3" fill="#4f46e5"/>
  <circle cx="64" cy="40" r="3" fill="#4f46e5"/>
  <circle cx="78" cy="45" r="3" fill="#4f46e5"/>
  <circle cx="50" cy="55" r="3" fill="#4f46e5"/>
  <circle cx="64" cy="60" r="3" fill="#4f46e5"/>
  <circle cx="78" cy="55" r="3" fill="#4f46e5"/>
  
  <!-- Connection lines -->
  <line x1="50" y1="45" x2="64" y2="40" stroke="#4f46e5" stroke-width="2"/>
  <line x1="64" y1="40" x2="78" y2="45" stroke="#4f46e5" stroke-width="2"/>
  <line x1="50" y1="55" x2="64" y2="60" stroke="#4f46e5" stroke-width="2"/>
  <line x1="64" y1="60" x2="78" y2="55" stroke="#4f46e5" stroke-width="2"/>
  <line x1="50" y1="45" x2="50" y2="55" stroke="#4f46e5" stroke-width="2"/>
  <line x1="78" y1="45" x2="78" y2="55" stroke="#4f46e5" stroke-width="2"/>
  
  <!-- AWS cloud symbol -->
  <path d="M30 90 C30 85, 35 80, 40 80 C42 75, 47 70, 55 70 C60 70, 65 72, 68 75 C70 72, 75 70, 80 70 C88 70, 95 77, 95 85 C95 90, 92 95, 88 98 C90 100, 92 102, 92 105 C92 110, 87 115, 82 115 C80 115, 78 114, 76 113 C74 115, 72 115, 70 115 C65 115, 60 110, 60 105 C60 103, 61 101, 62 99 C60 98, 58 96, 58 93 C58 90, 60 88, 62 87 C60 85, 58 82, 58 80 C58 75, 63 70, 68 70 C70 70, 72 70, 74 71 C76 69, 78 68, 80 68 C85 68, 90 73, 90 78 C90 80, 89 82, 88 83 C90 85, 92 87, 92 90 C92 95, 87 100, 82 100 C80 100, 78 99, 76 98 C74 100, 72 100, 70 100 C65 100, 60 95, 60 90 C60 88, 61 86, 62 85 C60 84, 58 82, 58 80 C58 75, 63 70, 68 70 C70 70, 72 70, 74 71 C76 69, 78 68, 80 68 C85 68, 90 73, 90 78 C90 80, 89 82, 88 83 C90 85, 92 87, 92 90 C92 95, 87 100, 82 100 C80 100, 78 99, 76 98 C74 100, 72 100, 70 100 C65 100, 60 95, 60 90 Z" fill="white" opacity="0.8"/>
</svg>
